<?xml version="1.0" encoding="UTF-8"?>
<!DOCTYPE svg PUBLIC "-//W3C//DTD SVG 1.1//EN" "http://www.w3.org/Graphics/SVG/1.1/DTD/svg11.dtd">
<!-- Creator: CorelDRAW 2017 -->
<svg xmlns="http://www.w3.org/2000/svg" xml:space="preserve" width="234px" height="98px" version="1.1" style="shape-rendering:geometricPrecision; text-rendering:geometricPrecision; image-rendering:optimizeQuality; fill-rule:evenodd; clip-rule:evenodd"
viewBox="0 0 156.905 65.565"
 xmlns:xlink="http://www.w3.org/1999/xlink">
 <defs>
  <style type="text/css">
   <![CDATA[
    .fil0 {fill:none}
    .fil3 {fill:black}
    .fil2 {fill:#0971B8}
    .fil1 {fill:#E30613}
    .fil4 {fill:white}
   ]]>
  </style>
 </defs>
 <g id="Layer_x0020_1">
  <metadata id="CorelCorpID_0Corel-Layer"/>
  <rect class="fil0" width="156.905" height="65.565"/>
  <path class="fil1" d="M118.343 16.442c3.268,-0.603 5.776,1.758 6.216,4.424 0.539,3.273 -1.664,5.8 -4.378,6.222 -3.301,0.515 -5.759,-1.695 -6.233,-4.394 -0.57,-3.243 1.782,-5.771 4.395,-6.252zm19.124 12.798l4.624 -0.005c-0.28,-3.279 -3.2,-6.424 -6.291,-7.466 -0.624,-0.21 -1.254,-0.332 -1.926,-0.387 -0.487,-0.041 -1.629,-0.052 -2.074,-0.206 -0.24,-0.082 0.838,-4.069 1.33,-4.312 0.339,-0.166 1.497,-0.115 1.965,-0.115 2.652,0.002 5.304,-0.003 7.955,0 -0.013,-0.546 -0.443,-1.771 -0.608,-2.376 -0.658,-2.407 -0.329,-1.944 -4.076,-1.944l-5.981 0c-0.772,0 -2.33,-0.24 -2.688,0.347 -0.478,0.787 -0.969,3.567 -1.45,4.62 -0.288,-0.361 -0.419,-0.674 -0.687,-1.034 -1.698,-2.28 -3.6,-3.811 -6.668,-4.015 -0.52,-0.034 -1.402,0.056 -1.812,-0.024l4.433 -6.107c0.415,-0.572 0.674,-0.919 1.123,-1.492 1.449,-1.85 1.232,-1.634 -0.496,-2.888 -2.039,-1.478 -1.182,-1.847 -3.8,1.676l-6.532 8.889c-2.755,3.873 -6.638,8.537 -2.8,14.44 1.311,2.017 3.525,3.594 5.973,4.218 1.481,0.377 3.08,0.393 4.589,0.036 4.883,-1.154 5.415,-5.324 9.542,-5.757 3.104,-0.326 5.687,1.601 6.355,3.902z"/>
  <path class="fil2" d="M16.866 56.986c0.763,0.173 0.602,0.76 -0.226,0.494l0.034 -0.238c0.006,-0.015 0.021,-0.042 0.029,-0.056 0.072,-0.136 0.113,-0.143 0.163,-0.2zm7.378 -5.638c0.061,-0.341 0.218,-0.419 0.34,-0.81 -0.285,0.196 -0.683,0.552 -0.827,0.818 0.097,0.087 0.055,0.104 0.19,0.1l0.297 -0.108c-0.131,0.832 -0.14,0.818 -0.799,0.804 -0.18,0.21 -0.13,0.14 -0.209,0.43 -0.342,0.05 -0.513,-0.035 -0.736,0.115 -0.595,0.4 0.288,0.399 -1.485,1.034 -0.627,0.225 -0.636,0.374 -1.015,0.666 -0.271,0.208 -0.308,0.079 -0.451,0.396 -0.172,0.381 -0.094,0.408 0.028,0.62 0.19,-0.347 0.043,-0.511 0.373,-0.606 0.337,0.209 0.129,0.475 0.039,0.785 -0.258,0.03 -0.791,0.11 -1.059,0.06 -0.535,-0.098 -0.202,-0.306 -0.711,-0.234 -0.032,0.586 0.472,0.434 0.886,0.597 -0.046,0.309 0.039,0.341 -0.23,0.304 -0.408,-0.056 0.178,-0.153 -0.258,-0.129 -0.217,0.269 -0.197,0.246 -0.078,0.699 0.127,0.487 0.136,0.432 -0.012,0.616 -0.341,-0.237 -0.168,-0.42 -0.454,-0.483 -0.091,-0.02 -0.494,0.101 -0.749,0.123 -0.037,-0.09 -0.044,-0.138 -0.1,-0.246 -0.098,-0.189 -0.063,-0.138 -0.171,-0.263 -0.919,0.029 -0.263,0.156 -0.948,0.586l0.311 0.558c0.013,0.017 0.035,0.039 0.047,0.053 0.181,0.212 0.026,-0.149 0.138,0.164 -0.736,0.285 -0.125,0.05 -0.749,0.015 -0.247,0.524 -0.264,0.485 -0.755,0.761l0.451 0.155 -0.177 0.755 -0.494 0.013c0.025,-0.399 0.139,-0.562 0.041,-0.932l-0.371 0.079c-0.086,0.896 0.441,-0.282 -0.142,1.273 -0.396,-0.007 -0.293,-0.133 -0.649,0.08 -0.088,-0.341 0.185,-0.149 -0.161,-0.375 -0.422,0.204 -0.122,0.212 -0.467,0.582 -0.471,-0.122 0.076,-0.002 -0.353,-0.235l-0.268 0.195c-0.005,0.393 0.316,0.57 -0.084,0.754 -0.394,0.182 -1.443,-0.315 -0.914,1.001 0.284,-0.186 0.538,-0.562 0.871,-0.692 0.314,0.344 0.392,0.678 -0.093,0.871 -0.235,-0.383 0.002,-0.029 -0.082,-0.29 -0.008,-0.025 -0.017,-0.054 -0.025,-0.078 -0.008,-0.024 -0.023,-0.058 -0.03,-0.078 -0.008,-0.02 -0.03,-0.035 -0.035,-0.078 -0.006,-0.044 -0.019,-0.056 -0.038,-0.078 -0.04,0.374 -0.006,0.969 -0.141,1.251 -0.252,-0.063 -0.134,-0.08 -0.3,-0.198 -0.143,-0.101 -0.009,-0.096 -0.223,-0.108 -0.157,0.193 -0.305,0.923 0.075,0.886 0.376,-0.036 -0.032,0.012 0.177,-0.063 0.473,-0.169 0.465,-0.067 0.865,-0.459 0.103,-0.101 0.191,-0.145 0.341,-0.251l-0.125 -0.544c0.067,0.029 0.187,0.113 0.252,0.129 0.017,0.004 0.049,0.008 0.065,0.011l0.229 -0.031 -0.029 -0.64 0.332 -0.211c0.085,0.211 0.073,0.398 0.214,0.558 0.302,-0.605 0.1,-0.625 0.91,-0.687l0.031 -0.518c0.335,-0.037 0.278,-0.048 0.493,-0.108l0.362 -0.143c0.402,-0.237 0.528,-0.161 0.516,-0.688 0.621,0.017 0.4,-0.172 0.85,-0.359l-0.22 0.551c0.385,-0.116 0.364,-0.016 0.754,-0.038 0.012,-0.826 -0.045,-0.56 0.424,-0.977 0.207,-0.184 0.165,-0.231 0.371,-0.299 0.018,-0.006 0.314,-0.026 0.338,-0.024 1.097,0.122 0.041,-0.024 0.789,-0.424 0.366,-0.196 0.734,-0.085 1.084,-0.064l0.23 -0.575c0.16,-0.21 0.059,0.141 0.179,-0.284 0.035,-0.125 0.028,-0.239 0.035,-0.37 1.122,0.088 0.204,-0.218 0.839,-0.542 0.147,-0.075 0.166,-0.021 0.281,-0.088 0.397,-0.228 -0.117,-0.365 0.399,-0.537 0.254,0.362 -0.631,0.918 -0.674,1.488 0.741,-0.162 0.88,-0.413 1.27,-0.808 0.663,-0.67 1.764,-1.155 2.067,-2.039 0.295,-0.859 0.407,-0.568 1.169,-0.807 -0.342,-0.26 -0.261,-0.017 -0.414,-0.459 0.019,-0.009 0.052,-0.006 0.063,-0.007 0.706,-0.05 0.025,-0.222 0.632,-0.269 0.103,0.218 -0.144,0.325 0.298,0.419l0.629 -0.057c0.29,-0.304 0.311,-0.748 0.503,-1.18 0.223,0.131 0.167,0.189 0.515,0.148 0.635,-1.322 0.451,-0.837 1.681,-1.597 0.685,-0.422 1.512,-0.687 2.141,-1.069l-0.083 -0.543c0.687,0.093 0.691,0.033 1.137,-0.332 0.308,-0.253 0.588,-0.403 0.855,-0.643 0.481,-0.433 0.901,-1.218 1.389,-1.585 0.978,0.243 0.977,-0.083 1.458,-1.446 0.354,0.148 0.174,0.192 0.514,0.308 0.339,-0.767 1.385,-0.926 1.652,-2.263 0.115,-0.577 -0.135,-0.815 0.336,-1.021 0.245,0.696 -0.234,0.262 0.079,1.055 0.294,-0.272 0.001,-0.242 0.385,-0.452 0.248,-0.136 0.274,0.011 0.503,-0.243 0.252,-0.28 0.152,-0.915 0.436,-1.15 0.309,-0.256 0.28,0.016 0.604,-0.24 0.019,-0.015 0.259,-0.369 0.307,-0.441 1.222,-1.821 2.081,-3.427 1.851,-5.993 -0.148,-0.094 -0.044,-0.023 -0.186,-0.091l-0.2 -0.096c0.201,-1.295 -0.285,-1.647 -1.379,-2.244 0.011,-0.337 0.117,-0.498 0.177,-0.845l0.011 -0.854c-0.395,-0.099 -0.372,0.601 -0.753,0.949 -0.366,-0.176 -0.363,-0.475 -0.447,-0.924 0.253,0.087 0.464,0.311 0.567,0.117 0.111,-0.208 -0.077,-0.491 -0.043,-0.901 -0.67,0.043 -0.649,-0.132 -0.959,-0.004 -0.666,0.275 -0.312,-0.08 -0.872,-0.11 -0.58,-0.031 -0.487,0.093 -0.838,-0.357 -0.063,-0.081 -0.215,-0.324 -0.214,-0.339 0.008,-0.134 0.176,-0.158 0.173,-0.372 -0.886,-0.44 -0.51,1.243 -1.909,0.513l0.441 -0.476c0.334,-0.318 0.241,0.068 0.325,-0.658 -0.37,-0.036 -0.271,-0.093 -0.368,0.162 -0.128,0.338 0.155,-0.065 -0.062,0.4 -0.769,-0.131 -0.68,0.174 -1.158,-0.085l-0.377 -0.086c0.041,0.501 0.554,0.311 0.101,0.561 -0.226,0.125 -0.481,-0.048 -0.877,-0.023 -0.7,0.044 -0.801,-0.392 -0.844,-0.773l-1.445 -0.192c-0.332,0.512 -0.321,0.536 -1.111,0.282 0.61,-0.511 1.355,-0.251 1.665,-0.471 -0.041,-0.399 0.055,-0.202 -0.24,-0.26 -0.252,-0.048 -0.17,0.087 -0.391,-0.025 0.298,-0.101 0.487,-0.113 0.63,-0.369l-0.441 -0.011c-0.155,0.072 -0.078,0.148 -0.29,0.155 -0.385,0.011 -0.269,-0.399 -0.182,-0.609 -0.673,0.037 0.165,-0.024 -0.276,0.093 -0.16,0.042 -0.319,-0.135 -0.533,-0.071 -0.308,0.212 -0.253,0.368 -0.586,0.506 -0.08,-0.227 0.03,0.024 -0.021,-0.172 -0.045,-0.176 0.022,-0.044 -0.073,-0.189 -0.554,0.058 -0.834,0.473 -1.121,0.833 -0.243,0.01 -0.426,-0.023 -0.659,-0.066 -0.36,-0.067 -0.25,-0.095 -0.525,-0.144 -0.2,0.204 -0.158,0.276 -0.396,0.427 -0.167,-0.993 0.608,-0.399 0.188,-1.115 -0.343,0.15 -0.137,0.03 -0.291,0.359 -0.077,0.163 -0.084,0.278 -0.234,0.362 -0.002,0.001 -0.645,-0.307 -0.767,-0.452 0.338,-0.145 0.336,0.227 0.622,-0.187l-0.363 -0.117c-0.063,-0.009 -0.254,-0.008 -0.34,-0.014 0.351,-0.276 0.135,-0.096 0.454,-0.091 0.482,0.008 0.126,0.002 0.545,-0.143 0.637,-0.221 0.173,0.496 0.792,-0.219 0.221,0.063 0.321,0.122 0.564,0.169 -0.006,-0.392 -0.182,-0.177 -0.445,-0.412 -0.044,-0.04 -0.082,-0.111 -0.114,-0.149l-0.362 0.215c-0.183,-0.378 -0.207,-0.395 -0.725,-0.372l-1.028 -0.397 -0.535 0.435c-0.331,0.219 -0.25,0.256 -0.498,0.404l-0.26 -0.145c0.096,-0.288 -0.039,-0.034 0.18,-0.188 0.088,-0.063 0.083,0.09 0.139,-0.07 0.012,-0.035 0.053,-0.018 0.076,-0.032 -0.871,0.004 -0.712,0.295 -1.999,0.036 -0.026,-0.856 0.177,-0.231 0.527,-0.9 0.024,0.015 0.053,0.038 0.069,0.049l0.338 0.187c0.046,-0.109 0.055,0.016 0.01,-0.159 -0.182,-0.708 -0.798,-0.009 -1.16,-0.022 -0.127,-0.44 -0.066,-0.101 0.053,-0.285l0.214 -0.21 -0.436 -0.187c-0.287,-0.094 -0.171,-0.015 -0.4,-0.163l-0.473 -2.145c0.94,-0.216 0.41,-0.33 1.033,-1 0.275,-0.297 0.67,-0.748 0.441,-1.23 1.38,-0.235 1.328,-1.186 1.775,-1.414 0.606,-0.183 0.266,0.289 0.965,-0.248 0.263,-0.202 0.55,-0.363 0.873,-0.532 0.325,-0.171 0.689,-0.287 0.921,-0.483 0.215,-0.182 0.446,-0.818 0.722,-0.744l0.211 0.043c0.104,-0.003 0.183,-0.034 0.312,-0.096 0.632,-0.298 0.928,-1.08 1.647,-1.09 0.965,-0.014 0.805,-0.005 1.275,-0.588 0.325,-0.403 0.006,-0.029 0.595,-0.14 0.364,-0.068 0.247,-0.156 0.487,-0.434 0.017,0.013 0.033,0.037 0.042,0.046 0.01,0.009 0.033,0.035 0.045,0.045l0.331 0.217c0.225,-0.785 0.296,-0.322 0.122,-1.287 0.291,-0.079 0.624,-0.251 0.839,-0.362 -0.138,-0.222 -0.246,-0.018 -0.324,-0.26 -0.014,-0.041 -0.053,-0.034 -0.076,-0.056 0.283,-0.189 0.354,-0.469 0.475,-0.82l0.135 -0.271c0.178,0.237 0.003,0.53 0.005,0.883 0.41,0.374 0.207,0.096 0.556,0.637 0.615,-0.163 0.318,-0.358 0.752,-0.654 0.419,-0.286 0.41,-0.124 0.746,-0.562 0.212,-0.279 0.849,-0.939 1.255,-0.989 0.171,-0.021 -0.24,0.069 0.195,0.005 0.328,-0.676 0.292,-0.659 1.277,-0.622l0.728 -1.322c0.376,0.041 0.188,0.036 0.365,0.128 0.268,0.141 -0.165,0.075 0.258,0.144 0.367,-0.724 -0.149,-0.537 -0.315,-0.997 0.167,-0.184 0.002,-0.06 0.253,-0.174l0.279 0.465c0.145,0.153 0.231,0.153 0.513,0.13 0.105,-0.466 -0.122,-0.668 0.05,-0.944 0.121,0.215 0.271,0.91 0.628,0.129 0.432,-0.943 0.042,-0.394 0.606,-0.407l0.038 -0.232c0.263,-0.677 1.643,-0.42 1.817,-1.207l-0.13 -0.054c-0.616,-0.133 0.45,-0.007 -0.136,-0.021 -0.896,-0.022 -0.363,0.311 -1.663,-0.158 -0.973,-0.351 -2.714,0.484 -3.46,0.925 -0.757,0.447 -0.906,0.096 -1.21,1.01 -0.489,-0.023 -0.389,-0.134 -0.79,-0.201 -0.712,0.671 -0.725,0.201 -1.689,0.454 -2.228,0.585 -1.214,0.864 -1.95,1.131 -0.183,0.067 -0.598,0.136 -0.787,0.171 -0.05,0.131 -0.054,0.246 -0.087,0.342 -0.214,0.62 -0.367,0.085 -0.828,0.502 -0.148,0.134 -0.099,0.246 -0.503,0.319 -0.334,0.061 -0.473,-0.037 -0.787,0.043 -0.288,0.074 -0.625,0.552 -0.91,0.802 -1.411,1.238 -4.005,1.283 -5.639,2.75 0.123,0.649 0.141,-0.099 0.216,0.621 -0.302,0.206 -0.322,0.37 -0.588,0.478 -0.02,-0.016 -0.043,-0.042 -0.055,-0.056 -0.011,-0.012 -0.039,-0.04 -0.052,-0.056l-0.173 -0.268c-0.077,0.058 -0.165,0.164 -0.22,0.203 -0.336,0.24 -0.377,0.135 -0.52,0.585 -0.206,-0.193 -0.147,-0.222 -0.569,-0.195 -0.015,0.019 -0.033,0.047 -0.042,0.06l-0.115 0.182c-0.605,1.024 -1.037,0.318 -1.422,0.909 -0.425,0.654 -0.542,1.216 -1.201,1.446 0.184,0.595 0.228,0.657 -0.258,1.023 -0.926,0.697 -1.467,1.444 -1.521,2.782l-0.481 0.225c0.096,0.638 0.434,0.514 0.397,1.269l0.532 -0.129c0.091,0.514 0.249,1.005 0.335,1.448 -0.488,-0.06 -0.309,-0.171 -0.692,-0.048 -0.014,-0.564 -0.142,-0.755 -0.447,-0.985 -0.074,0.802 0.307,1.013 0.498,1.605l0.088 -0.284c0.011,-0.056 -0.044,-0.022 0.016,-0.208 0.708,0.861 0.291,1.611 0.216,1.942 0.191,0.201 0.288,0.356 0.529,0.543 0.211,-0.06 0.103,-0.046 0.226,-0.13 0.121,-0.081 0.004,-0.05 0.076,-0.068 0.328,0.233 0.317,0.428 0.604,0.717l-0.464 0.153c0.376,0.398 0.368,-0.084 0.737,0.331 0.241,0.272 0.038,0.501 0.392,0.734l1.168 0.98c0.531,0.501 0.733,0.433 1.453,0.695 0.47,0.171 1.161,0.527 1.62,0.553 0.798,0.045 0.318,-0.072 0.873,0.233 0.383,0.21 0.415,-0.066 0.708,-0.162 0.159,-0.052 4.599,1.415 4.801,1.472 2.599,0.731 3.978,0.777 6.359,2.33 1.31,0.854 1.059,1.35 0.236,2.73 -0.351,0.587 -0.545,0.772 -0.934,1.212 -0.825,0.932 0.258,0.945 -0.149,1.409 -0.33,-0.119 -0.287,-0.098 -0.364,-0.525 -0.251,0.393 -1.056,0.645 -1.037,1.106 0.013,0.285 0.2,0.302 0.255,0.401l-0.659 -0.127c-0.174,0.421 -0.034,0.35 -0.442,0.5 -0.385,0.141 -0.25,0.071 -0.553,0.273 -0.051,0.48 0.128,0.705 0.008,1.319 -0.129,0.654 -0.107,0.913 -0.488,1.084l-0.057 -0.513c-0.393,0.173 -0.631,0.581 -1.096,0.858l0.089 0.15c0.054,0.098 0.091,0.003 0.099,0.217 -0.251,0.001 -0.327,-0.067 -0.543,-0.207l-0.156 -0.096c-0.108,0.373 -0.093,0.354 -0.503,0.399 -0.733,0.081 -0.206,-0.003 -0.636,0.229 -0.461,0.248 -0.769,0.104 -1.286,0.488 -0.007,0.492 0.186,0.364 0.157,0.902 -0.422,0.345 -0.417,-0.032 -0.572,0.47 -0.1,0.321 0.011,0.564 -0.225,0.8 -0.307,0.307 -0.705,0.156 -1.089,0.872 -0.151,0.281 -0.404,1.838 -2.37,1.278 -0.311,0.535 -0.105,0.761 -0.33,0.976 -0.143,0.134 -0.237,0.144 -0.431,0.317l-0.419 0.326z"/>
  <path class="fil1" d="M141.917 34.503l-4.65 -0.01c-0.767,2.091 -3.483,3.717 -6.096,3.493 -3.934,-0.339 -4.917,-3.864 -5.515,-4.009 -0.619,0.022 -0.963,0.579 -1.391,0.937 -0.467,0.391 -0.83,0.706 -1.301,1.131 -0.846,0.766 -0.697,0.943 0.959,2.835 1.583,1.809 3.833,2.977 6.414,3.188 4.081,0.335 7.854,-1.104 10.016,-4.239 0.459,-0.665 1.45,-2.241 1.564,-3.326z"/>
  <path class="fil2" d="M143.532 30.973c0.009,0.239 -0.011,0.542 0.005,0.759l0.246 0.556c-0.204,0.17 -0.233,0.152 -0.24,0.519 -0.625,-0.076 -0.222,0.186 -0.41,-0.398l-0.72 -0.04c-0.002,-0.386 0.503,-1.35 1.119,-1.396zm-4.077 1.376c0.703,-0.082 0.023,0.221 0.789,0.135l0.096 -0.361c-0.517,0.165 -1.042,0.009 -0.916,-0.652 0.096,-0.505 0.803,-0.742 1.151,-0.272 0.272,0.367 0.21,1.159 -0.075,1.45 -0.372,0.379 -0.962,0.175 -1.045,-0.3zm-1.421 -0.809c0.119,-0.399 0.011,-0.076 0.33,-0.284 0.437,-0.284 -0.121,-0.204 0.489,-0.282l0.013 1.834c-0.667,-0.049 -0.276,0.074 -0.399,-1.168 -0.314,-0.007 -0.225,0.058 -0.433,-0.1zm3.349 0.076c1.226,-0.264 1.138,1.226 0.165,1.221 -0.492,-0.004 -0.549,-0.165 -0.635,-0.579 0.863,0.048 0.087,0.272 0.818,0.203 0.245,-0.335 0.149,-0.36 -0.048,-0.585 -0.369,-0.005 -0.218,0.111 -0.696,0.12l0.157 -0.997 1.008 -0.03c-0.057,0.585 0.176,0.223 -0.411,0.336 -0.297,0.058 -0.323,-0.072 -0.358,0.311zm-4.116 2.877l4.65 0.01 4.552 -0.017c-0.034,-0.489 -1.201,-1.968 -1.344,-2.522 -0.136,-0.526 1.033,-2.08 1.068,-2.72l-4.102 -0.009 -4.624 0.005c-1.073,0.013 -0.947,-0.484 -0.898,2.114 0.015,0.781 -0.071,2.462 0.072,3.126l0.626 0.013z"/>
  <path class="fil3" d="M65.587 39.967l-0.01 -1.311 -1.146 0 -0.016 8.394 1.154 0.001c0.124,-2.187 -0.77,-7.025 2.066,-7.737 2.997,-0.751 1.903,4.092 2.12,7.736l1.14 -0.001c0.156,-2.764 -0.734,-7.189 2.058,-7.751 3.03,-0.61 1.891,3.948 2.127,7.75l1.14 0.002c0.087,-1.535 0.207,-6.382 -0.364,-7.487 -1.079,-2.085 -4.291,-1.388 -5.046,0.419 -0.018,-0.018 -0.041,-0.075 -0.048,-0.06 -0.007,0.015 -0.037,-0.046 -0.046,-0.06 -0.11,-0.17 -0.019,-0.015 -0.113,-0.188 -0.937,-1.718 -2.711,-1.673 -3.971,-0.8 -0.594,0.41 -0.62,0.788 -1.045,1.093z"/>
  <path class="fil3" d="M82.081 39.347c4.389,-1.149 5.287,6.177 1.582,7.026 -2.114,0.485 -3.531,-1.05 -3.812,-2.751 -0.338,-2.048 0.65,-3.862 2.23,-4.275zm-3.383 7.703l1.073 0.001 0.017 -1.316c0.644,0.54 0.756,1.076 1.896,1.461 0.946,0.319 2.063,0.237 2.963,-0.119 3.36,-1.326 3.526,-6.866 0.129,-8.396 -1.194,-0.537 -2.933,-0.579 -4.059,0.352 -0.36,0.297 -0.503,0.572 -0.847,0.842l-0.004 -7.016 -1.154 -0.011 -0.014 14.202z"/>
  <path class="fil3" d="M46.704 47.029l1.161 0.015c0.092,-2.371 -0.8,-7.268 2.274,-7.762 1.858,-0.299 2.289,1.079 2.29,2.727 0.001,1.653 -0.041,3.352 0.005,4.999l1.152 0.046c0.063,-1.271 0.012,-2.651 0.012,-3.923 0,-1.369 0.117,-2.423 -0.48,-3.541 -0.753,-1.409 -2.769,-1.665 -4.196,-0.761 -0.673,0.427 -0.542,0.577 -1.034,1.041l-0.015 -6.994 -1.161 -0.022 -0.008 14.175z"/>
  <path class="fil3" d="M112.701 47.017l1.159 0.033c0.041,-0.937 -0.124,-3.203 0.075,-3.856l0.227 -0.132c0.397,0.122 3.176,3.06 3.681,3.583 0.567,0.589 0.684,0.406 2.067,0.405 -0.168,-0.406 -3.405,-3.428 -4.201,-4.16 -0.289,-0.268 -0.45,-0.321 -0.568,-0.741l3.023 -2.587c0.325,-0.318 0.767,-0.53 0.975,-0.903 -1.71,-0.013 -1.357,-0.222 -2.998,1.311 -0.358,0.334 -0.731,0.674 -1.13,1.022 -0.337,0.293 -0.777,0.738 -1.115,0.989l-0.027 -9.115 -1.162 -0.007 -0.006 14.158z"/>
  <path class="fil3" d="M105.356 39.348c4.204,-1.118 5.251,6.193 1.395,7.031 -4.199,0.913 -5.293,-5.994 -1.395,-7.031zm3.791 6.439l0.006 1.229 1.072 0.037 0.012 -8.39 -1.079 0.004 -0.014 1.308c-0.452,-0.335 -0.462,-1.014 -1.844,-1.482 -2.278,-0.771 -5.537,0.649 -5.603,4.263 -0.078,4.253 4.607,6.014 6.983,3.497l0.467 -0.466z"/>
  <path class="fil3" d="M56.988 51.062c1.067,0.039 1.127,0.154 1.342,-0.208l1.089 -2.741c0.534,-1.352 3.558,-8.756 3.721,-9.454l-1.156 -0.003c-0.418,1.027 -2.362,6.513 -2.686,6.934 -0.298,-0.364 -1.951,-4.254 -2.375,-5.225 -0.863,-1.979 -0.434,-1.709 -2.044,-1.709 0.205,0.786 1.004,2.218 1.371,3.036l2.13 4.601c0.427,0.895 0.292,0.722 -0.086,1.629 -0.415,0.994 -0.976,2.155 -1.306,3.14z"/>
  <path class="fil3" d="M96.129 38.657l-1.135 -0.001c-0.248,3.761 0.945,7.784 -2.33,7.796 -3.277,0.012 -2.139,-3.978 -2.351,-7.783l-1.151 -0.002c-0.046,1.435 -0.145,4.672 0.069,5.928 0.3,1.752 1.385,2.766 3.339,2.799 1.998,0.033 3.131,-0.947 3.478,-2.657 0.208,-1.025 0.162,-4.89 0.081,-6.08z"/>
  <polygon class="fil3" points="98.61,47.051 99.766,47.05 99.779,32.85 98.625,32.849 "/>
  <path class="fil2" d="M62.603 50.971l1.534 3.446c0.467,-0.978 1.139,-2.454 1.492,-3.469 0.078,0.11 0.018,-0.024 0.115,0.221l0.293 1.485c0.091,0.483 0.115,1.201 0.364,1.6l0.543 0.003 -1.067 -5.234 -1.691 4.055c-0.382,-0.347 -1.292,-3.103 -1.858,-4.042l-0.997 5.227 0.584 -0.012 0.688 -3.28z"/>
  <path class="fil2" d="M108.299 52.198c-0.603,-2.8 3.54,-3.565 4.062,-0.91 0.541,2.752 -3.507,3.484 -4.062,0.91zm1.224 -3.004c-3.498,1.088 -1.802,6.164 1.663,5.071 3.312,-1.044 1.848,-6.163 -1.663,-5.071z"/>
  <path class="fil2" d="M67.753 52.104c-0.208,-1.218 0.666,-2.265 1.645,-2.435 1.318,-0.23 2.266,0.635 2.443,1.687 0.468,2.77 -3.633,3.413 -4.088,0.748zm-0.665 -0.093c0.329,3.403 5.732,3.064 5.421,-0.566 -0.288,-3.359 -5.776,-3.096 -5.421,0.566z"/>
  <path class="fil2" d="M91.083 54.248l0.579 0.016 0.013 -3.721c0.286,0.133 1.441,1.539 1.829,1.93 0.624,0.629 1.216,1.319 1.853,1.931 0.013,-0.086 0.123,-4.693 0.015,-5.003 -0.064,-0.187 0.069,-0.231 -0.465,-0.231 -0.22,0.361 -0.107,3.372 -0.114,3.781 -0.52,-0.297 -3.045,-3.481 -3.701,-3.93l-0.009 5.227z"/>
  <path class="fil2" d="M78.398 50.534c0.607,0.279 3.126,3.591 3.724,3.861l0.002 -4.067c0.006,-1.205 0.199,-1.172 -0.592,-1.154l-0.004 3.78c-0.32,-0.195 -3.469,-3.782 -3.724,-3.954l0.008 5.262 0.581 -0.003 0.005 -3.725z"/>
  <path class="fil2" d="M114.259 49.692c0.793,0 1.564,-0.066 1.597,0.825 0.037,0.984 -0.761,0.868 -1.632,0.868l0.035 -1.693zm0.789 2.174c0.604,-0.089 0.984,-0.126 1.235,-0.538 0.235,-0.385 0.248,-0.983 0.072,-1.417 -0.378,-0.933 -1.886,-0.841 -2.733,-0.703l0.006 5.041 0.599 -0.014 0.001 -2.371c0.263,0.155 0.395,0.394 0.573,0.626l1.311 1.769 0.772 -0.001c-0.228,-0.471 -1.433,-1.799 -1.836,-2.392z"/>
  <path class="fil2" d="M98.503 49.717c0.841,-0.098 1.592,-0.054 1.613,0.804 0.023,0.894 -0.812,0.965 -1.632,0.824l0.019 -1.628zm0.814 2.205c0.243,-0.15 1.928,-0.243 1.301,-1.984 -0.363,-1.006 -1.52,-0.768 -2.736,-0.768l0.008 5.091 0.592 -0.004 0.02 -2.392c0.258,0.156 1.586,2.018 1.878,2.401l0.77 -0.028 -0.921 -1.195c-0.319,-0.406 -0.647,-0.745 -0.912,-1.121z"/>
  <path class="fil2" d="M73.105 49.181c-0.094,0.497 -0.073,2.975 -0.016,3.546 0.111,1.099 0.736,1.66 1.909,1.674 2.625,0.031 2.039,-2.578 2.035,-5.217l-0.632 0.003c-0.011,2.72 0.477,4.673 -1.403,4.635 -2.185,-0.044 -0.916,-2.991 -1.363,-4.654l-0.53 0.013z"/>
  <path class="fil2" d="M86.486 52.169c0.026,-0.25 0.513,-1.495 0.769,-1.755l0.709 1.754 -1.478 0.001zm-1.112 2.092c0.352,0.001 0.531,-0.847 0.884,-1.551 2.202,-0.024 1.901,-0.159 2.26,0.736 0.362,0.901 0.198,0.825 1.014,0.8l-2.286 -5.221c-0.209,0.225 -2.151,4.679 -2.317,5.223l0.445 0.013z"/>
  <polygon class="fil2" points="101.899,49.734 103.957,49.727 103.976,49.183 101.279,49.2 101.279,54.243 103.975,54.249 103.961,53.699 101.911,53.697 101.93,51.758 103.98,51.741 103.959,51.181 101.907,51.178 101.899,50.795 "/>
  <path class="fil2" d="M104.264 53.201c0.518,2.334 4.231,0.937 2.966,-1.175 -0.411,-0.685 -1.711,-0.778 -2.056,-1.317 -0.329,-0.512 0.021,-1.009 0.415,-1.107 0.624,-0.155 0.8,0.256 1.094,0.505l0.454 -0.34c-0.678,-1.269 -3.067,-0.837 -2.679,0.912 0.32,1.444 3.029,1.01 2.269,2.677 -0.366,0.805 -1.591,0.694 -1.913,-0.417l-0.55 0.262z"/>
  <polygon class="fil2" points="84.436,49.766 85.859,49.761 85.868,49.581 85.866,49.17 82.371,49.17 82.379,49.761 83.803,49.761 83.81,54.253 84.436,54.245 "/>
  <path class="fil2" d="M116.471 49.581c0.06,0.116 -0.044,0.188 0.576,0.19 0.291,0.001 0.574,-0.01 0.869,-0.003l0.001 4.468 0.611 0.02 0.007 -4.495 1.425 0 0.007 -0.591 -3.494 0 -0.002 0.411z"/>
  <path class="fil2" d="M89.86 49.17c-0.284,0.135 -0.195,-0.091 -0.222,0.493l0.024 4.595 0.607 0.003 0 -5.091 -0.409 0z"/>
  <path class="fil4" d="M140.2 31.876c-0.559,0.014 -0.603,-0.67 0.075,-0.562 0.048,0.242 0.035,0.384 -0.075,0.562zm0.375 -0.677c-0.348,-0.47 -1.055,-0.233 -1.151,0.272 -0.126,0.661 0.399,0.817 0.916,0.652l-0.096 0.361c-0.766,0.086 -0.086,-0.217 -0.789,-0.135 0.083,0.475 0.673,0.679 1.045,0.3 0.285,-0.291 0.347,-1.083 0.075,-1.45z"/>
  <path class="fil4" d="M141.383 31.616c0.035,-0.383 0.061,-0.253 0.358,-0.311 0.587,-0.113 0.354,0.249 0.411,-0.336l-1.008 0.03 -0.157 0.997c0.478,-0.009 0.327,-0.125 0.696,-0.12 0.197,0.225 0.293,0.25 0.048,0.585 -0.731,0.069 0.045,-0.155 -0.818,-0.203 0.086,0.414 0.143,0.575 0.635,0.579 0.973,0.005 1.061,-1.485 -0.165,-1.221z"/>
  <path class="fil4" d="M143.532 30.973c-0.616,0.046 -1.121,1.01 -1.119,1.396l0.72 0.04c0.188,0.584 -0.215,0.322 0.41,0.398 0.007,-0.367 0.036,-0.349 0.24,-0.519l-0.246 -0.556c-0.016,-0.217 0.004,-0.52 -0.005,-0.759z"/>
  <path class="fil4" d="M138.034 31.54c0.208,0.158 0.119,0.093 0.433,0.1 0.123,1.242 -0.268,1.119 0.399,1.168l-0.013 -1.834c-0.61,0.078 -0.052,-0.002 -0.489,0.282 -0.319,0.208 -0.211,-0.115 -0.33,0.284z"/>
  <path class="fil2" d="M10.601 63.781c0.071,-0.485 0.078,-0.28 -0.091,-0.649 -0.332,0.12 -0.238,0.142 -0.41,0.425l0.34 0.231c-0.141,0.665 0.017,0.599 0.588,0.413l0.033 -0.78c-0.328,0.167 -0.111,0.173 -0.46,0.36z"/>
  <path class="fil2" d="M18.882 54.938c-0.367,-0.089 -0.265,0.011 -0.365,0.064 0.012,0.405 0.162,0.335 0.483,0.535l0.189 -0.435c-0.027,-0.015 -0.275,-0.156 -0.307,-0.164z"/>
  <path class="fil2" d="M140.2 31.876c0.11,-0.178 0.123,-0.32 0.075,-0.562 -0.678,-0.108 -0.634,0.576 -0.075,0.562z"/>
  <path class="fil0" d="M143.315 31.462c0,0.115 0.065,0.717 -0.086,0.717 -0.155,0 -0.548,0.05 -0.312,-0.229 0.076,-0.091 0.197,-0.083 0.336,-0.317 0.024,-0.041 0.073,-0.049 0.105,-0.142"/>
  <path class="fil2" d="M143.191 32.161c0.124,0 0.102,-0.408 0.09,-0.617 -0.124,0.041 -0.304,0.116 -0.402,0.387 -0.125,0.345 0.156,0.23 0.312,0.23z"/>
 </g>
</svg>
